<svg width="39" height="38" viewBox="0 0 39 38" fill="none" xmlns="http://www.w3.org/2000/svg">
<path d="M8.604 30.132C6.828 30.132 5.376 29.7 4.248 28.836C3.144 27.972 2.328 26.868 1.8 25.524C1.296 24.156 1.044 22.74 1.044 21.276C1.044 19.38 1.332 17.484 1.908 15.588C2.484 13.668 3.276 11.844 4.284 10.116C5.292 8.364 6.432 6.816 7.704 5.472C9 4.128 10.368 3.072 11.808 2.304C13.272 1.512 14.724 1.116 16.164 1.116C17.196 1.116 18.048 1.356 18.72 1.836C19.416 2.316 19.764 3.144 19.764 4.32C19.764 5.04 19.632 5.844 19.368 6.732C19.128 7.62 18.792 8.472 18.36 9.288C17.952 10.104 17.484 10.776 16.956 11.304C16.452 11.832 15.936 12.096 15.408 12.096C15.192 12.096 14.964 12.024 14.724 11.88C14.484 11.712 14.268 11.448 14.076 11.088C14.436 10.68 14.832 10.176 15.264 9.576C15.72 8.976 16.152 8.34 16.56 7.668C16.968 6.996 17.304 6.348 17.568 5.724C17.832 5.076 17.964 4.5 17.964 3.996C17.964 3.564 17.832 3.216 17.568 2.952C17.328 2.664 16.896 2.52 16.272 2.52C15.24 2.52 14.16 2.928 13.032 3.744C11.928 4.56 10.86 5.652 9.828 7.02C8.796 8.364 7.86 9.876 7.02 11.556C6.18 13.212 5.52 14.928 5.04 16.704C4.56 18.456 4.32 20.124 4.32 21.708C4.32 22.86 4.488 23.964 4.824 25.02C5.16 26.076 5.712 26.928 6.48 27.576C7.248 28.248 8.244 28.584 9.468 28.584C10.764 28.584 12.048 28.224 13.32 27.504C14.592 26.784 15.756 25.836 16.812 24.66C17.892 23.484 18.756 22.212 19.404 20.844L20.196 21.384C19.356 22.968 18.36 24.432 17.208 25.776C16.056 27.096 14.748 28.152 13.284 28.944C11.844 29.736 10.284 30.132 8.604 30.132Z" fill="#23231F"/>
<path d="M25.208 37.132C23.888 37.132 22.688 36.772 21.608 36.052C20.528 35.356 19.664 34.336 19.016 32.992C18.368 31.648 18.044 30.028 18.044 28.132C18.044 26.284 18.332 24.412 18.908 22.516C19.484 20.62 20.264 18.82 21.248 17.116C22.256 15.388 23.408 13.852 24.704 12.508C26 11.14 27.356 10.072 28.772 9.304C30.212 8.512 31.652 8.116 33.092 8.116C34.1 8.116 34.904 8.32 35.504 8.728C36.104 9.112 36.536 9.628 36.8 10.276C37.064 10.9 37.196 11.572 37.196 12.292C37.196 13.132 37.04 13.972 36.728 14.812C36.44 15.628 36.044 16.312 35.54 16.864C35.036 17.416 34.484 17.692 33.884 17.692C33.62 17.692 33.368 17.62 33.128 17.476C32.912 17.308 32.708 17.02 32.516 16.612C32.852 16.372 33.236 15.952 33.668 15.352C34.124 14.728 34.52 14.044 34.856 13.3C35.192 12.556 35.36 11.884 35.36 11.284C35.36 10.78 35.204 10.36 34.892 10.024C34.58 9.688 34.064 9.52 33.344 9.52C32.264 9.52 31.16 9.928 30.032 10.744C28.904 11.56 27.824 12.652 26.792 14.02C25.76 15.364 24.824 16.876 23.984 18.556C23.144 20.236 22.484 21.952 22.004 23.704C21.524 25.432 21.284 27.076 21.284 28.636C21.284 30.82 21.752 32.524 22.688 33.748C23.624 34.972 24.764 35.584 26.108 35.584C27.068 35.584 27.968 35.26 28.808 34.612C29.648 33.964 30.38 33.124 31.004 32.092C31.652 31.036 32.168 29.896 32.552 28.672C32.936 27.448 33.176 26.26 33.272 25.108C32.576 24.964 31.928 24.868 31.328 24.82C30.728 24.748 30.116 24.712 29.492 24.712C29.132 24.712 28.76 24.724 28.376 24.748C28.016 24.748 27.62 24.748 27.188 24.748C27.38 23.956 27.704 23.392 28.16 23.056C28.616 22.696 29.192 22.516 29.888 22.516C30.608 22.516 31.328 22.636 32.048 22.876C32.792 23.092 33.524 23.332 34.244 23.596C34.988 23.86 35.684 24.064 36.332 24.208L36.008 25.36C35.576 26.632 35.216 27.712 34.928 28.6C34.664 29.488 34.448 30.256 34.28 30.904C34.136 31.528 34.04 32.092 33.992 32.596C33.944 33.1 33.92 33.592 33.92 34.072C33.92 34.552 33.932 35.044 33.956 35.548C33.98 36.052 34.004 36.628 34.028 37.276C33.428 37.156 32.96 36.952 32.624 36.664C32.288 36.376 32.06 36.028 31.94 35.62C31.82 35.212 31.76 34.804 31.76 34.396C31.76 34.228 31.76 34.06 31.76 33.892C31.784 33.724 31.82 33.544 31.868 33.352C31.028 34.456 30.056 35.356 28.952 36.052C27.848 36.772 26.6 37.132 25.208 37.132Z" fill="#23231F"/>
</svg>
