<svg width="39" height="38" viewBox="0 0 39 38" fill="none" xmlns="http://www.w3.org/2000/svg">
<path d="M30.396 7.868C32.172 7.868 33.624 8.3 34.752 9.164C35.856 10.028 36.672 11.132 37.2 12.476C37.704 13.844 37.956 15.26 37.956 16.724C37.956 18.62 37.668 20.516 37.092 22.412C36.516 24.332 35.724 26.156 34.716 27.884C33.708 29.636 32.568 31.184 31.296 32.528C30 33.872 28.632 34.928 27.192 35.696C25.728 36.488 24.276 36.884 22.836 36.884C21.804 36.884 20.952 36.644 20.28 36.164C19.584 35.684 19.236 34.856 19.236 33.68C19.236 32.96 19.368 32.156 19.632 31.268C19.872 30.38 20.208 29.528 20.64 28.712C21.048 27.896 21.516 27.224 22.044 26.696C22.548 26.168 23.064 25.904 23.592 25.904C23.808 25.904 24.036 25.976 24.276 26.12C24.516 26.288 24.732 26.552 24.924 26.912C24.564 27.32 24.168 27.824 23.736 28.424C23.28 29.024 22.848 29.66 22.44 30.332C22.032 31.004 21.696 31.652 21.432 32.276C21.168 32.924 21.036 33.5 21.036 34.004C21.036 34.436 21.168 34.784 21.432 35.048C21.672 35.336 22.104 35.48 22.728 35.48C23.76 35.48 24.84 35.072 25.968 34.256C27.072 33.44 28.14 32.348 29.172 30.98C30.204 29.636 31.14 28.124 31.98 26.444C32.82 24.788 33.48 23.072 33.96 21.296C34.44 19.544 34.68 17.876 34.68 16.292C34.68 15.14 34.512 14.036 34.176 12.98C33.84 11.924 33.288 11.072 32.52 10.424C31.752 9.752 30.756 9.416 29.532 9.416C28.236 9.416 26.952 9.776 25.68 10.496C24.408 11.216 23.244 12.164 22.188 13.34C21.108 14.516 20.244 15.788 19.596 17.156L18.804 16.616C19.644 15.032 20.64 13.568 21.792 12.224C22.944 10.904 24.252 9.848 25.716 9.056C27.156 8.264 28.716 7.868 30.396 7.868Z" fill="#23231F"/>
<path d="M13.792 0.868C15.112 0.868 16.312 1.228 17.392 1.948C18.472 2.644 19.336 3.664 19.984 5.008C20.632 6.352 20.956 7.972 20.956 9.868C20.956 11.716 20.668 13.588 20.092 15.484C19.516 17.38 18.736 19.18 17.752 20.884C16.744 22.612 15.592 24.148 14.296 25.492C13 26.86 11.644 27.928 10.228 28.696C8.788 29.488 7.348 29.884 5.908 29.884C4.9 29.884 4.096 29.68 3.496 29.272C2.896 28.888 2.464 28.372 2.2 27.724C1.936 27.1 1.804 26.428 1.804 25.708C1.804 24.868 1.96 24.028 2.272 23.188C2.56 22.372 2.956 21.688 3.46 21.136C3.964 20.584 4.516 20.308 5.116 20.308C5.38 20.308 5.632 20.38 5.872 20.524C6.088 20.692 6.292 20.98 6.484 21.388C6.148 21.628 5.764 22.048 5.332 22.648C4.876 23.272 4.48 23.956 4.144 24.7C3.808 25.444 3.64 26.116 3.64 26.716C3.64 27.22 3.796 27.64 4.108 27.976C4.42 28.312 4.936 28.48 5.656 28.48C6.736 28.48 7.84 28.072 8.968 27.256C10.096 26.44 11.176 25.348 12.208 23.98C13.24 22.636 14.176 21.124 15.016 19.444C15.856 17.764 16.516 16.048 16.996 14.296C17.476 12.568 17.716 10.924 17.716 9.364C17.716 7.18 17.248 5.476 16.312 4.252C15.376 3.028 14.236 2.416 12.892 2.416C11.932 2.416 11.032 2.74 10.192 3.388C9.352 4.036 8.62 4.876 7.996 5.908C7.348 6.964 6.832 8.104 6.448 9.328C6.064 10.552 5.824 11.74 5.728 12.892C6.424 13.036 7.072 13.132 7.672 13.18C8.272 13.252 8.884 13.288 9.508 13.288C9.868 13.288 10.24 13.276 10.624 13.252C10.984 13.252 11.38 13.252 11.812 13.252C11.62 14.044 11.296 14.608 10.84 14.944C10.384 15.304 9.808 15.484 9.112 15.484C8.392 15.484 7.672 15.364 6.952 15.124C6.208 14.908 5.476 14.668 4.756 14.404C4.012 14.14 3.316 13.936 2.668 13.792L2.992 12.64C3.424 11.368 3.784 10.288 4.072 9.4C4.336 8.512 4.552 7.744 4.72 7.096C4.864 6.472 4.96 5.908 5.008 5.404C5.056 4.9 5.08 4.408 5.08 3.928C5.08 3.448 5.068 2.956 5.044 2.452C5.02 1.948 4.996 1.372 4.972 0.724C5.572 0.844 6.04 1.048 6.376 1.336C6.712 1.624 6.94 1.972 7.06 2.38C7.18 2.788 7.24 3.196 7.24 3.604C7.24 3.772 7.24 3.94 7.24 4.108C7.216 4.276 7.18 4.456 7.132 4.648C7.972 3.544 8.944 2.644 10.048 1.948C11.152 1.228 12.4 0.868 13.792 0.868Z" fill="#23231F"/>
</svg>
