<svg width="141" height="99" viewBox="0 0 141 99" fill="none" xmlns="http://www.w3.org/2000/svg">
<path d="M65.28 78.208C65.6213 76.928 66.3467 76.5867 67.456 77.184L68.736 77.952C69.8453 78.5493 70.1013 79.4027 69.504 80.512C66.176 86.2293 61.8667 90.6667 56.576 93.824C51.3707 96.9813 45.312 98.56 38.4 98.56C32.512 98.56 27.1787 97.408 22.4 95.104C17.7067 92.7147 13.696 89.3867 10.368 85.12C7.04 80.8533 4.48 75.6907 2.688 69.632C0.896001 63.5733 1.3113e-06 56.7893 1.3113e-06 49.28C1.3113e-06 41.7707 0.896001 34.9867 2.688 28.928C4.48 22.8693 7.04 17.7067 10.368 13.44C13.696 9.08799 17.7067 5.75999 22.4 3.45599C27.1787 1.15199 32.512 -7.62939e-06 38.4 -7.62939e-06C42.752 -7.62939e-06 46.848 0.639992 50.688 1.91999C54.6133 3.11466 58.0267 4.77866 60.928 6.91199C63.8293 8.95999 66.1333 11.392 67.84 14.208C69.5467 16.9387 70.4 19.8827 70.4 23.04C70.4 28.16 67.8827 33.2373 62.848 38.272C61.9093 39.2107 61.312 39.04 61.056 37.76C58.9227 27.0933 55.3387 18.7733 50.304 12.8C45.2693 6.82666 39.3813 3.84 32.64 3.84C31.616 3.84 30.592 3.92533 29.568 4.09599C28.544 4.26666 27.52 4.48 26.496 4.73599C22.5707 5.75999 19.328 7.76533 16.768 10.752C14.208 13.6533 12.3307 17.3653 11.136 21.888C10.0267 26.3253 9.6 31.4453 9.856 37.248C10.1973 43.0507 11.264 49.3227 13.056 56.064C14.6773 62.0373 16.64 67.4133 18.944 72.192C21.248 76.9707 23.7653 81.024 26.496 84.352C29.2267 87.5947 32.1707 90.112 35.328 91.904C38.4853 93.6107 41.7707 94.464 45.184 94.464C50.304 94.464 54.5707 92.9707 57.984 89.984C61.3973 86.9973 63.8293 83.072 65.28 78.208ZM126.82 93.952C124.26 95.4027 121.487 96.512 118.5 97.28C115.513 98.1333 112.313 98.56 108.9 98.56C103.012 98.56 97.6787 97.408 92.9 95.104C88.2067 92.7147 84.196 89.3867 80.868 85.12C77.54 80.8533 74.98 75.6907 73.188 69.632C71.396 63.5733 70.5 56.7893 70.5 49.28C70.5 41.7707 71.396 34.9867 73.188 28.928C74.98 22.8693 77.54 17.7067 80.868 13.44C84.196 9.08799 88.2067 5.75999 92.9 3.45599C97.6787 1.15199 103.012 -7.62939e-06 108.9 -7.62939e-06C113.252 -7.62939e-06 117.348 0.639992 121.188 1.91999C125.113 3.11466 128.527 4.77866 131.428 6.91199C134.329 8.95999 136.633 11.392 138.34 14.208C140.047 16.9387 140.9 19.8827 140.9 23.04C140.9 28.16 138.383 33.2373 133.348 38.272C132.409 39.2107 131.812 39.04 131.556 37.76C129.423 27.0933 125.839 18.7733 120.804 12.8C115.769 6.82666 109.881 3.84 103.14 3.84C102.116 3.84 101.092 3.92533 100.068 4.09599C99.044 4.26666 98.02 4.48 96.996 4.73599C93.0707 5.75999 89.828 7.76533 87.268 10.752C84.708 13.6533 82.8307 17.3653 81.636 21.888C80.5267 26.3253 80.1 31.4453 80.356 37.248C80.6973 43.0507 81.764 49.3227 83.556 56.064C85.1773 62.1227 87.14 67.5413 89.444 72.32C91.748 77.0987 94.2653 81.152 96.996 84.48C99.812 87.7227 102.799 90.1973 105.956 91.904C109.199 93.6107 112.527 94.464 115.94 94.464C116.793 94.464 117.604 94.4213 118.372 94.336C119.14 94.1653 119.951 93.9947 120.804 93.824C122.425 93.3973 123.791 92.5867 124.9 91.392C126.095 90.1973 126.991 88.704 127.588 86.912C128.271 85.12 128.655 83.1147 128.74 80.896C128.825 78.592 128.612 76.16 128.1 73.6C127.417 70.272 126.137 67.5413 124.26 65.408C122.468 63.1893 120.335 61.9093 117.86 61.568C117.007 61.4827 116.58 61.0133 116.58 60.16C116.58 59.3067 117.007 58.88 117.86 58.88H138.98C140.26 58.88 140.9 59.52 140.9 60.8V96C140.9 96.8533 140.473 97.28 139.62 97.28C138.681 97.28 137.828 97.152 137.06 96.896L126.82 93.952Z" fill="#FAF3EB"/>
</svg>
